<svg width="24" height="25" viewBox="0 0 24 25" fill="none" xmlns="http://www.w3.org/2000/svg">
<g filter="url(#filter0_d_5404_56)">
<path fill-rule="evenodd" clip-rule="evenodd" d="M6.33423 5.15646C5.76936 5.66876 5.37143 6.48526 5.37143 7.72395C5.37143 8.49178 5.74054 9.37595 6.39401 10.3171C7.0395 11.2468 7.91325 12.1619 8.80764 12.9768C9.69901 13.7889 10.5933 14.4856 11.2662 14.98C11.5571 15.1937 11.8056 15.3689 11.9933 15.4985C12.182 15.3641 12.4326 15.1821 12.7264 14.9604C13.4003 14.4517 14.296 13.7378 15.1889 12.9135C16.0848 12.0864 16.9605 11.1642 17.6075 10.2403C18.2647 9.30178 18.6286 8.44202 18.6286 7.72398C18.6286 5.85557 17.1163 4.35487 15.2692 4.35487C14.1581 4.35487 13.1713 4.89912 12.5565 5.74372C12.4277 5.92072 12.2205 6.02564 11.9998 6.02563C11.7791 6.02562 11.5719 5.92069 11.4431 5.74369C10.8284 4.89912 9.84181 4.35487 8.73039 4.35487C7.73916 4.35487 6.90933 4.63487 6.33423 5.15646ZM11.9998 16.3229C11.6243 16.8897 11.6242 16.8897 11.624 16.8896L11.6222 16.8883L11.6173 16.8852L11.5999 16.8738C11.5849 16.864 11.5631 16.8497 11.5351 16.831C11.4791 16.7938 11.3978 16.7394 11.2951 16.669C11.0896 16.5284 10.7976 16.3242 10.4478 16.0672C9.74933 15.554 8.81505 14.8266 7.87789 13.9728C6.94375 13.1217 5.98898 12.129 5.26308 11.0835C4.54515 10.0495 4 8.89125 4 7.72395C4 6.1806 4.50766 4.97383 5.40677 4.15839C6.29563 3.35224 7.48815 3 8.73039 3C10.0031 3 11.1531 3.50391 11.9999 4.31539C12.8467 3.50391 13.9967 3 15.2692 3C17.8899 3 20 5.12338 20 7.72398C20 8.85265 19.4496 9.99111 18.7353 11.0111C18.0108 12.0458 17.0579 13.0425 16.1252 13.9034C15.1895 14.7672 14.2565 15.5105 13.559 16.037C13.2097 16.3007 12.9181 16.5109 12.7131 16.6559C12.6105 16.7284 12.5295 16.7845 12.4736 16.823C12.4457 16.8422 12.424 16.8569 12.4091 16.8671L12.3918 16.8788L12.3871 16.882L12.3857 16.8829C12.3855 16.883 12.385 16.8834 11.9998 16.3229ZM11.9998 16.3229L12.3857 16.8829C12.1567 17.0365 11.8556 17.0393 11.624 16.8896L11.9998 16.3229Z" fill="#2D3B87"/>
</g>
<defs>
<filter id="filter0_d_5404_56" x="-2" y="0" width="28" height="28" filterUnits="userSpaceOnUse" color-interpolation-filters="sRGB">
<feFlood flood-opacity="0" result="BackgroundImageFix"/>
<feColorMatrix in="SourceAlpha" type="matrix" values="0 0 0 0 0 0 0 0 0 0 0 0 0 0 0 0 0 0 127 0" result="hardAlpha"/>
<feOffset dy="4"/>
<feGaussianBlur stdDeviation="2"/>
<feComposite in2="hardAlpha" operator="out"/>
<feColorMatrix type="matrix" values="0 0 0 0 0 0 0 0 0 0 0 0 0 0 0 0 0 0 0.25 0"/>
<feBlend mode="normal" in2="BackgroundImageFix" result="effect1_dropShadow_5404_56"/>
<feBlend mode="normal" in="SourceGraphic" in2="effect1_dropShadow_5404_56" result="shape"/>
</filter>
</defs>
</svg>
